<svg width="24" height="24" viewBox="0 0 24 24" fill="none" xmlns="http://www.w3.org/2000/svg">
<path fill-rule="evenodd" clip-rule="evenodd" d="M8.25 17C8.25 16.5858 8.58579 16.25 9 16.25H15C15.4142 16.25 15.75 16.5858 15.75 17V18C15.75 20.0711 14.0711 21.75 12 21.75C9.92893 21.75 8.25 20.0711 8.25 18V17ZM9.75 17.75V18C9.75 19.2426 10.7574 20.25 12 20.25C13.2426 20.25 14.25 19.2426 14.25 18V17.75H9.75Z" fill="#000"/>
<path fill-rule="evenodd" clip-rule="evenodd" d="M12 3.74997C8.54821 3.74998 5.75 6.5482 5.75 9.99997V13.7224C5.75 14.099 5.60038 14.4603 5.33405 14.7266L4.80877 14.2013L5.33405 14.7266L4.82322 15.2374C4.77634 15.2843 4.75 15.3479 4.75 15.4142V16C4.75 16.1381 4.86193 16.25 5 16.25H19C19.1381 16.25 19.25 16.1381 19.25 16V15.4142C19.25 15.3479 19.2237 15.2843 19.1768 15.2374L18.6659 14.7266C18.3996 14.4602 18.25 14.099 18.25 13.7224V9.99997C18.25 6.54818 15.4518 3.74996 12 3.74997ZM4.25 9.99997C4.25 5.71977 7.71978 2.24998 12 2.24997C16.2802 2.24996 19.75 5.71976 19.75 9.99997V13.6893L20.2375 14.1768L19.7071 14.7071L20.2375 14.1768C20.5656 14.505 20.75 14.9501 20.75 15.4142V16C20.75 16.9665 19.9665 17.75 19 17.75H5C4.0335 17.75 3.25 16.9665 3.25 16V15.4142C3.25 14.9501 3.43437 14.505 3.76256 14.1768L4.25 13.6893V9.99997Z" fill="#000"/>
</svg>
