<svg width="22" height="20" viewBox="0 0 22 20" fill="none" xmlns="http://www.w3.org/2000/svg">
<path fill-rule="evenodd" clip-rule="evenodd" d="M16.8857 0C17.4571 0 17.8857 0.331263 18.3143 0.662526L20.6 3.80953H1.59998L3.74283 0.662526C4.1714 0.331263 4.59998 0 5.1714 0H16.8857ZM1.12498 5.1306C0.731226 5.49926 0.599976 5.99081 0.599976 6.48236V6.72814C0.599976 7.71124 1.12498 8.57146 1.91248 9.1859C1.99998 9.34975 2.08748 9.40437 2.17498 9.45899C2.21873 9.48629 2.26248 9.5136 2.30623 9.55456C2.83123 9.80034 3.35623 9.92323 4.01248 9.92323H4.66873C5.32498 9.80034 5.98123 9.55456 6.37498 9.06301C7.03123 9.55456 7.81873 9.92323 8.73748 9.92323C9.65623 9.92323 10.4437 9.55456 11.1 9.06301C11.7562 9.55456 12.5437 9.92323 13.4625 9.92323C14.3812 9.92323 15.1687 9.55456 15.825 9.06301C16.35 9.55456 16.875 9.80034 17.5312 9.92323H18.1875C18.8437 9.92323 19.3687 9.80034 19.8937 9.55456C19.9594 9.49312 20.025 9.4624 20.0906 9.43168C20.1562 9.40096 20.2219 9.37023 20.2875 9.30879C20.3531 9.24734 20.4187 9.21662 20.4844 9.1859C20.55 9.15518 20.6156 9.12446 20.6812 9.06301C21.2062 8.44857 21.6 7.58836 21.6 6.72814V6.48236C21.6 5.99081 21.4687 5.49926 21.075 5.1306L20.8125 4.88482H1.38748L1.12498 5.1306ZM18.1875 10.9063H17.5312C16.875 10.7834 16.2187 10.5376 15.825 10.0461C15.1687 10.6605 14.3812 10.9063 13.4625 10.9063C12.5437 10.9063 11.7562 10.5376 11.1 10.0461C10.4437 10.5376 9.65623 10.9063 8.73748 10.9063C7.81873 10.9063 7.03123 10.5376 6.37498 10.0461C5.84998 10.4147 5.32498 10.7834 4.66873 10.9063H4.01248C3.35623 10.9063 2.83123 10.7834 2.30623 10.5376C2.17498 10.4147 2.04373 10.2918 1.91248 10.2918V18.7711C1.91248 19.5084 2.43748 20 3.22498 20H7.81873V13.8556C7.81873 13.1183 8.34373 12.6267 9.13123 12.6267H13.0687C13.8562 12.6267 14.3812 13.1183 14.3812 13.8556V20H18.975C19.7625 20 20.2875 19.5084 20.2875 18.7711V10.169C20.1562 10.2918 20.025 10.4147 19.8937 10.4147C19.3687 10.7834 18.8437 10.9063 18.1875 10.9063Z" fill="#000"/>
</svg>
