<svg width="25" height="24" viewBox="0 0 25 24" fill="none" xmlns="http://www.w3.org/2000/svg">
<path d="M17.7002 16.2276C20.0306 16.7767 21.7002 18.2584 21.7002 20" stroke="#8F9BA8" stroke-width="1.5" stroke-linecap="round" stroke-linejoin="round"/>
<path d="M3.7002 20C3.7002 17.7909 6.38649 16 9.7002 16C13.0139 16 15.7002 17.7909 15.7002 20" stroke="#8F9BA8" stroke-width="1.5" stroke-linecap="round" stroke-linejoin="round"/>
<path d="M15.7002 13C17.9093 13 19.7002 11.2091 19.7002 9C19.7002 6.79086 17.9093 5 15.7002 5" stroke="#8F9BA8" stroke-width="1.5" stroke-linecap="round" stroke-linejoin="round"/>
<path d="M9.7002 13C11.9093 13 13.7002 11.2091 13.7002 9C13.7002 6.79086 11.9093 5 9.7002 5C7.49106 5 5.7002 6.79086 5.7002 9C5.7002 11.2091 7.49106 13 9.7002 13Z" stroke="#8F9BA8" stroke-width="1.5" stroke-linecap="round" stroke-linejoin="round"/>
</svg>
